<svg width="24" height="24" fill="none" xmlns="http://www.w3.org/2000/svg"><path d="M23.433 13.653a.844.844 0 0 0-.706.153 8.995 8.995 0 0 1-2.73 1.595c-.95.368-1.993.552-3.097.552a9.02 9.02 0 0 1-6.38-2.638 9.02 9.02 0 0 1-2.638-6.38 9.44 9.44 0 0 1 .491-2.974 8.236 8.236 0 0 1 1.472-2.638.783.783 0 0 0-.122-1.104.843.843 0 0 0-.706-.154C6.41.771 4.141 2.335 2.515 4.421.951 6.476 0 9.02 0 11.812A12.1 12.1 0 0 0 3.558 20.4a12.101 12.101 0 0 0 8.588 3.558c2.821 0 5.428-.981 7.514-2.607a12.093 12.093 0 0 0 4.294-6.717c.153-.46-.092-.89-.521-.981Zm-4.693 6.41a10.481 10.481 0 0 1-6.533 2.27 10.525 10.525 0 0 1-7.453-3.098 10.525 10.525 0 0 1-3.098-7.453c0-2.423.798-4.631 2.178-6.41A10.545 10.545 0 0 1 7.36 2.427c-.153.338-.307.675-.43 1.043-.398 1.104-.582 2.27-.582 3.496 0 2.914 1.196 5.583 3.098 7.484a10.597 10.597 0 0 0 7.483 3.098c1.289 0 2.515-.215 3.65-.644.399-.154.798-.307 1.166-.49-.736 1.41-1.748 2.667-3.006 3.649Z" fill="#B1B5C3"/></svg>